<?xml version="1.0" standalone="no"?>
<!DOCTYPE svg PUBLIC "-//W3C//DTD SVG 20010904//EN"
 "http://www.w3.org/TR/2001/REC-SVG-20010904/DTD/svg10.dtd">
<svg version="1.0" xmlns="http://www.w3.org/2000/svg"
 width="300.000000pt" height="300.000000pt" viewBox="0 0 300.000000 300.000000"
 preserveAspectRatio="xMidYMid meet">
<metadata>
Created by potrace 1.10, written by Peter Selinger 2001-2011
</metadata>
<g transform="translate(0.000000,300.000000) scale(0.100000,-0.100000)"
fill="#000000" stroke="none">
<path d="M640 2515 l0 -125 675 0 c371 0 675 -3 675 -7 0 -4 -11 -18 -24 -32
-13 -15 -324 -397 -690 -851 l-666 -824 0 -113 0 -113 895 0 895 0 0 125 0
125 -708 2 -708 3 687 850 688 850 0 118 1 117 -860 0 -860 0 0 -125z m1678
-11 l3 -81 -156 -194 c-86 -107 -164 -203 -174 -214 -85 -102 -988 -1224
-1013 -1259 l-32 -46 24 -25 23 -25 666 0 c366 0 672 -4 679 -9 9 -5 12 -29
10 -82 l-3 -74 -845 0 -845 0 -3 79 c-2 59 1 84 13 103 9 13 311 389 671 835
360 445 662 824 671 841 15 30 15 32 -11 54 l-27 23 -640 0 -639 0 0 80 0 80
813 -2 812 -3 3 -81z"/>
</g>
</svg>
